HIERARCHY
ROOT Hips
{
	OFFSET 0.000000 0.000000 0.000000
	CHANNELS 6 Xposition Yposition Zposition Zrotation Yrotation Xrotation 
	JOINT LHipJoint
	{
		OFFSET 0.000000 0.000000 0.000000
		CHANNELS 3 Zrotation Yrotation Xrotation
		JOINT LeftUpLeg
		{
			OFFSET 1.363060 -1.794630 0.839290
			CHANNELS 3 Zrotation Yrotation Xrotation
			JOINT LeftLeg
			{
				OFFSET 2.448110 -6.726130 0.000000
				CHANNELS 3 Zrotation Yrotation Xrotation
				JOINT LeftFoot
				{
					OFFSET 2.562200 -7.039590 0.000000
					CHANNELS 3 Zrotation Yrotation Xrotation
					JOINT LeftToeBase
					{
						OFFSET 0.157640 -0.433110 2.322550
						CHANNELS 3 Zrotation Yrotation Xrotation
						End Site
						{
							OFFSET 0.000000 0.000000 0.000000
						}
					}
				}
			}
		}
	}
	JOINT RHipJoint
	{
		OFFSET 0.000000 0.000000 0.000000
		CHANNELS 3 Zrotation Yrotation Xrotation
		JOINT RightUpLeg
		{
			OFFSET -1.305520 -1.794630 0.839290
			CHANNELS 3 Zrotation Yrotation Xrotation
			JOINT RightLeg
			{
				OFFSET -2.542530 -6.985550 0.000000
				CHANNELS 3 Zrotation Yrotation Xrotation
				JOINT RightFoot
				{
					OFFSET -2.568260 -7.056230 0.000000
					CHANNELS 3 Zrotation Yrotation Xrotation
					JOINT RightToeBase
					{
						OFFSET -0.164730 -0.452590 2.363150
						CHANNELS 3 Zrotation Yrotation Xrotation
						End Site
						{
							OFFSET 0.000000 0.000000 0.000000
						}
					}
				}
			}
		}
	}
}
MOTION
Frames: 11
Frame Time: 0.008333
1.210959 17.218232 -1.228716 117.152494 -78.962784 -116.600818 -4.466824 -5.306737 2.078472 -9.596748 -6.455793 -90.613209 -4.876855 -2.009468 -5.490368 -0.287149 2.405699 17.380578 2.050000 0.000000 -50.363600 11.447399 1.941936 -5.365835 1.789611 0.670201 -1.649785 1.143784 -1.665194 17.058841 -1.097447 -3.660052 -8.046416 -0.135100 -0.000001 -51.282700
1.202939 17.214013 -1.226391 117.457841 -79.124686 -116.773613 -4.626527 -5.123655 2.089376 -9.935950 -6.654034 -91.065550 -4.695719 -1.598930 -2.115710 0.113776 4.699345 16.489884 3.029100 0.000000 -48.727100 11.396705 1.883687 -5.194898 2.093539 1.239418 -1.925742 1.137519 -1.670664 17.372693 -1.199291 -4.179093 -8.285878 -0.131399 0.000000 -50.879800
1.195746 17.209386 -1.224995 117.441858 -79.332522 -116.722999 -4.782111 -5.012386 2.058358 -9.679752 -6.811230 -91.106666 -4.366386 -1.157175 1.251059 0.543777 7.048901 16.374268 4.053400 -0.000000 -46.903400 11.336081 1.830998 -5.075225 2.423777 1.730617 -1.988551 1.132376 -1.676011 17.565322 -1.307166 -4.731705 -8.480677 -0.130600 -0.000000 -50.466900
1.189461 17.204901 -1.224528 116.950755 -79.572723 -116.284004 -4.914426 -4.972966 2.000222 -8.885417 -6.999207 -90.659070 -3.927710 -0.746431 4.327063 0.943871 9.235581 17.050956 5.098500 0.000000 -45.308101 11.281959 1.788673 -5.013550 2.723229 2.047665 -1.878963 1.128671 -1.679822 17.639373 -1.405080 -5.233278 -8.624910 -0.131600 0.000000 -50.090800
1.183675 17.201216 -1.224854 115.903335 -79.844937 -115.348424 -5.018629 -4.981375 1.926299 -7.765516 -7.296592 -89.783919 -3.451260 -0.392190 7.026822 1.246392 10.934709 18.376099 6.041400 -0.000000 -44.265900 11.244786 1.754577 -5.002997 2.970087 2.143758 -1.650778 1.127135 -1.678991 17.595469 -1.483494 -5.637377 -8.712873 -0.134600 -0.000000 -49.776300
1.178065 17.198863 -1.225908 114.283121 -80.148175 -113.871740 -5.098110 -5.007718 1.846762 -6.542581 -7.750128 -88.601923 -3.000061 -0.094649 9.367471 1.411248 11.894556 20.116401 6.719000 -0.000000 -43.913700 11.232595 1.725142 -5.029611 3.156593 2.010646 -1.362317 1.127869 -1.670669 17.440344 -1.537224 -5.921346 -8.740935 -0.140500 0.000000 -49.544501
1.172117 17.198324 -1.227507 112.150655 -80.475023 -111.883820 -5.159806 -5.026872 1.772013 -5.380044 -8.362727 -87.243566 -2.611086 0.157460 11.412927 1.435595 12.004251 22.015440 6.987300 -0.000000 -44.219500 11.248197 1.696957 -5.076529 3.286632 1.675077 -1.065821 1.130406 -1.652568 17.186370 -1.565357 -6.083813 -8.707840 -0.149801 0.000000 -49.404800
1.165294 17.199864 -1.229576 109.637501 -80.806675 -109.494567 -5.210129 -5.021049 1.706406 -4.406576 -9.093117 -85.824751 -2.300192 0.380321 13.260807 1.341093 11.273566 23.842317 6.761400 -0.000001 -45.044300 11.290881 1.667604 -5.125227 3.366171 1.187627 -0.802192 1.133572 -1.623620 16.854297 -1.569796 -6.135683 -8.617828 -0.162600 0.000000 -49.354099
1.157109 17.203584 -1.231961 106.934696 -81.119106 -106.880653 -5.254032 -4.982648 1.649995 -3.695637 -9.876533 -84.417239 -2.064251 0.585418 14.997363 1.166158 9.848881 25.435742 6.066701 0.000000 -46.244400 11.355736 1.635900 -5.159626 3.402550 0.612980 -0.595945 1.136021 -1.584262 16.468396 -1.554769 -6.097486 -8.479339 -0.178000 -0.000000 -49.381900
1.147237 17.209305 -1.234418 104.284260 -81.390431 -104.283125 -5.297016 -4.912746 1.595610 -3.298332 -10.633356 -83.057475 -1.890900 0.781095 16.707945 0.951566 7.953908 26.699088 5.016100 -0.000000 -47.639700 11.433858 1.600178 -5.165742 3.406443 0.023912 -0.454482 1.136840 -1.536596 16.054417 -1.526403 -5.997840 -8.304570 -0.195401 0.000000 -49.470600
1.135426 17.216662 -1.236695 101.929484 -81.607531 -101.948343 -5.344566 -4.819079 1.535709 -3.217097 -11.295729 -81.742315 -1.760298 0.968560 18.437412 0.738654 5.889204 27.621324 3.802100 -0.000001 -49.121400 11.514991 1.558753 -5.134552 3.389830 -0.512116 -0.373696 1.135640 -1.483785 15.633812 -1.491510 -5.868281 -8.106367 -0.213900 0.000000 -49.606300
